<?xml version="1.0" encoding="UTF-8"?>
<svg id="Camada_1" xmlns="http://www.w3.org/2000/svg" version="1.1" viewBox="0 0 1920 1920">
  <!-- Generator: Adobe Illustrator 29.1.0, SVG Export Plug-In . SVG Version: 2.1.0 Build 142)  -->
  <defs>
    <style>
      .st0 {
        fill: #fff;
      }
    </style>
  </defs>
  <path class="st0" d="M1561.7,739.9h-62.4l-178.2,422.9h60.3l45.9-110.3h196l45.9,110.3h63.7l-171.3-422.9ZM1445.9,1005.1l82.2-207.7,77.4,207.7h-159.7Z"/>
  <polygon class="st0" points="834.5 97 892.1 97 892.1 450 1088.8 450 1088.8 502.1 834.5 502.1 834.5 97"/>
  <polygon class="st0" points="528.9 1162.7 258.8 1162.7 258.8 739.9 524.1 739.9 524.1 789.9 317.1 789.9 317.1 921.5 514.5 921.5 514.5 970.8 317.1 970.8 317.1 1111.3 528.9 1111.3 528.9 1162.7"/>
  <polygon class="st0" points="177.9 502.7 411.7 97 646.1 502.7 177.9 502.7"/>
  <polygon class="st0" points="1132.7 1449.9 990.8 1449.9 990.8 1823.4 932.5 1823.4 932.5 1449.9 791.3 1449.9 791.3 1399.9 1132.7 1399.9 1132.7 1449.9"/>
  <polygon class="st0" points="962 1162.7 718 739.9 1206 739.9 962 1162.7"/>
  <circle class="st0" cx="1530.5" cy="1611.6" r="211.8"/>
</svg>